<?xml version="1.0" encoding="utf-8"?>
<!-- Generator: Adobe Illustrator 26.5.0, SVG Export Plug-In . SVG Version: 6.00 Build 0)  -->
<svg version="1.2" baseProfile="tiny" id="g-scrolly-Artboard_1-1200-circles-img" xmlns="http://www.w3.org/2000/svg" xmlns:xlink="http://www.w3.org/1999/xlink"
	 x="0px" y="0px" viewBox="0 0 1200 678.351" overflow="visible" xml:space="preserve">
<g>
	<g id="novote_00000090259700908448203910000002875026729982488206_">
		
			<ellipse id="novote7_00000092420937345028641880000014685097980375793043_" fill="#D3D3D3" cx="567.063" cy="538.595" rx="11.735" ry="11.946"/>
		
			<ellipse id="novote6_00000023274364000000124610000004940735724043560322_" fill="#D3D3D3" cx="506.608" cy="526.649" rx="11.735" ry="11.946"/>
		
			<ellipse id="novote5_00000003086935104904011830000012892459802070983044_" fill="#D3D3D3" cx="482.229" cy="506.991" rx="11.735" ry="11.946"/>
		
			<ellipse id="novote4_00000147908071549409828960000009989604533537152160_" fill="#D3D3D3" cx="470.494" cy="538.805" rx="11.735" ry="11.946"/>
		
			<ellipse id="novote3_00000010274970472226503330000003975976694185223082_" fill="#D3D3D3" cx="497.157" cy="481.631" rx="11.735" ry="11.946"/>
		
			<ellipse id="novote2_00000020362343935553800600000004574957940907040676_" fill="#D3D3D3" cx="533.005" cy="474.318" rx="11.735" ry="11.946"/>
		
			<ellipse id="novote1_00000140737065135703659880000008312394751318795405_" fill="#D3D3D3" cx="539.853" cy="511.772" rx="11.735" ry="11.946"/>
	</g>
	<g id="no_00000092416719002057419250000006236047558676133249_">
		
			<ellipse id="no18_00000049919639765883350630000016768603325743278999_" fill="#D3D3D3" cx="680.671" cy="415.419" rx="11.735" ry="11.946"/>
		
			<ellipse id="no17_00000000223664292312159390000013388015715126023601_" fill="#D3D3D3" cx="669.271" cy="448.869" rx="11.735" ry="11.946"/>
		
			<ellipse id="no16_00000049921942689582473200000015424267748212752807_" fill="#D3D3D3" cx="708.311" cy="434.542" rx="11.735" ry="11.946"/>
		
			<ellipse id="no15_00000074419493937643745480000002227046609907159954_" fill="#D3D3D3" cx="637.903" cy="436.923" rx="11.735" ry="11.946"/>
		
			<ellipse id="no14_00000107576261802979663420000010007501570785799350_" fill="#D3D3D3" cx="598.523" cy="440.275" rx="11.735" ry="11.946"/>
		
			<ellipse id="no13_00000007404886538699765610000011873840392098088609_" fill="#D3D3D3" cx="619.63" cy="469.685" rx="11.735" ry="11.946"/>
		
			<ellipse id="no12_00000053538350628122666760000002001461592160832696_" fill="#D3D3D3" cx="627.924" cy="535.243" rx="11.735" ry="11.946"/>
		
			<ellipse id="no11_00000025423069510111005960000017017168335488677773_" fill="#D3D3D3" cx="644.18" cy="501.11" rx="11.735" ry="11.946"/>
		
			<ellipse id="no10_00000106114031175026015750000009786080911051117734_" fill="#D3D3D3" cx="663.129" cy="530.674" rx="11.735" ry="11.946"/>
		
			<ellipse id="no9_00000109001638743807792150000015668882135850105009_" fill="#D3D3D3" cx="600.985" cy="518.728" rx="11.735" ry="11.946"/>
		
			<ellipse id="no8_00000111903336141548425460000005496306031045001649_" fill="#D3D3D3" cx="568.854" cy="466.555" rx="11.735" ry="11.946"/>
		
			<ellipse id="no7_00000152986209047064904960000003934566358714558360_" fill="#D3D3D3" cx="598.575" cy="489.164" rx="11.735" ry="11.946"/>
		
			<ellipse id="no6_00000119796083424671213640000012714019101741607581_" fill="#D3D3D3" cx="568.854" cy="501.697" rx="11.735" ry="11.946"/>
		
			<ellipse id="no5_00000029754244596209345900000005301034881012598917_" fill="#D3D3D3" cx="683.56" cy="478.32" rx="11.735" ry="11.946"/>
		
			<ellipse id="no4_00000140693071132075900420000006764403833137220488_" fill="#D3D3D3" cx="726.328" cy="506.782" rx="11.735" ry="11.946"/>
		
			<ellipse id="no3_00000112604748977027157620000010373299018771597480_" fill="#D3D3D3" cx="691.122" cy="512.848" rx="11.735" ry="11.946"/>
		
			<ellipse id="no2_00000085960482344076897120000016340530172645305222_" fill="#D3D3D3" cx="718.764" cy="470.69" rx="11.735" ry="11.946"/>
		
			<ellipse id="no1_00000115488638455506185220000003334610211637197493_" fill="#D3D3D3" cx="714.385" cy="535.243" rx="11.735" ry="11.946"/>
	</g>
	<g id="noballot_00000033354394168444579600000014563084536699959953_">
		
			<ellipse id="noballot68_00000006666260096256353990000003093521009588160906_" fill="#D3D3D3" cx="738.838" cy="339.276" rx="11.735" ry="11.946"/>
		
			<ellipse id="noballot67_00000110458985031806798330000014186884812443474071_" fill="#D3D3D3" cx="830.273" cy="381.848" rx="11.735" ry="11.946"/>
		
			<ellipse id="noballot66_00000130648405639731050200000014599701538346720946_" fill="#D3D3D3" cx="754.236" cy="307.905" rx="11.735" ry="11.946"/>
		
			<ellipse id="noballot65_00000150802663420703494860000018176557606012735157_" fill="#D3D3D3" cx="848.545" cy="351.921" rx="11.735" ry="11.946"/>
		
			<ellipse id="noballot64_00000090280893875311080440000014360319742063147148_" fill="#D3D3D3" cx="750.573" cy="407.163" rx="11.735" ry="11.946"/>
		
			<ellipse id="noballot63_00000044881781803609294130000010444336899036854462_" fill="#D3D3D3" cx="796.23" cy="367.94" rx="11.735" ry="11.946"/>
		
			<ellipse id="noballot62_00000136382925309929964710000009645669755910911630_" fill="#D3D3D3" cx="751.298" cy="375.453" rx="11.735" ry="11.946"/>
		
			<ellipse id="noballot61_00000141441770944859663410000003925122313199081099_" fill="#D3D3D3" cx="792.91" cy="397.549" rx="11.735" ry="11.946"/>
		
			<ellipse id="noballot60_00000150791431300134842660000002090382608688199589_" fill="#D3D3D3" cx="760.007" cy="273.911" rx="11.735" ry="11.946"/>
		
			<ellipse id="noballot59_00000054965799450661331210000012415421928176241312_" fill="#D3D3D3" cx="773.536" cy="341.899" rx="11.735" ry="11.946"/>
		
			<ellipse id="noballot58_00000067198934298188887780000006136898671124011697_" fill="#D3D3D3" cx="855.473" cy="477.218" rx="11.735" ry="11.946"/>
		
			<ellipse id="noballot57_00000045579656608172184910000017567059100084978356_" fill="#D3D3D3" cx="822.103" cy="530.674" rx="11.735" ry="11.946"/>
		
			<ellipse id="noballot56_00000150801522526787732190000002973282877283845511_" fill="#D3D3D3" cx="876.28" cy="436.738" rx="11.735" ry="11.946"/>
		
			<ellipse id="noballot55_00000111172145540698775460000013230491530931950979_" fill="#D3D3D3" cx="848.29" cy="409.495" rx="11.735" ry="11.946"/>
		
			<ellipse id="noballot54_00000151541938762073089150000016459491111445826436_" fill="#D3D3D3" cx="735.784" cy="129.426" rx="11.735" ry="11.946"/>
		
			<ellipse id="noballot53_00000180364780322179696440000004943036277428881320_" fill="#D3D3D3" cx="868.179" cy="385.603" rx="11.735" ry="11.946"/>
		
			<ellipse id="noballot52_00000079449629434228005510000002848050177600816050_" fill="#D3D3D3" cx="757.917" cy="162.122" rx="11.735" ry="11.946"/>
		
			<ellipse id="noballot51_00000057866862115179452040000011919840490814714510_" fill="#D3D3D3" cx="895.066" cy="468.734" rx="11.735" ry="11.946"/>
		
			<ellipse id="noballot50_00000147181507382610765520000002229999677381082525_" fill="#D3D3D3" cx="744.843" cy="440.275" rx="11.735" ry="11.946"/>
		
			<ellipse id="noballot49_00000093175115898541283030000010760801335731561629_" fill="#D3D3D3" cx="778.401" cy="424.977" rx="11.735" ry="11.946"/>
		
			<ellipse id="noballot48_00000111186120772552078640000014012370606835751091_" fill="#D3D3D3" cx="811.958" cy="429.817" rx="11.735" ry="11.946"/>
		
			<ellipse id="noballot47_00000094592503524984599700000009474217756049095300_" fill="#D3D3D3" cx="891.314" cy="404.743" rx="11.735" ry="11.946"/>
		
			<ellipse id="noballot46_00000085938630566590332930000009568115123063836826_" fill="#D3D3D3" cx="840.959" cy="445.332" rx="11.735" ry="11.946"/>
		
			<ellipse id="noballot45_00000169526667829629812810000008331685408839446147_" fill="#D3D3D3" cx="817.933" cy="495.045" rx="11.735" ry="11.946"/>
		
			<ellipse id="noballot44_00000050657421403774860490000001590269825201879221_" fill="#D3D3D3" cx="773.536" cy="462.372" rx="11.735" ry="11.946"/>
		
			<ellipse id="noballot43_00000018210909443276864860000007953065252537161404_" fill="#D3D3D3" cx="812.63" cy="465.655" rx="11.735" ry="11.946"/>
		
			<ellipse id="noballot42_00000009554869646145381370000018241354566624925319_" fill="#D3D3D3" cx="775.164" cy="106.637" rx="11.735" ry="11.946"/>
		
			<ellipse id="noballot41_00000028313444426241171120000011847271601639470988_" fill="#D3D3D3" cx="817.933" cy="135.098" rx="11.735" ry="11.946"/>
		
			<ellipse id="noballot40_00000169522218199538579520000012173281586446921606_" fill="#D3D3D3" cx="782.726" cy="141.165" rx="11.735" ry="11.946"/>
		
			<ellipse id="noballot39_00000182519381554647375600000001842791958652894364_" fill="#D3D3D3" cx="810.369" cy="99.007" rx="11.735" ry="11.946"/>
		
			<ellipse id="noballot38_00000029011805660112092330000000768834637626337701_" fill="#D3D3D3" cx="884.947" cy="353.845" rx="11.735" ry="11.946"/>
		
			<ellipse id="noballot37_00000062177103186109403610000015712104187127838872_" fill="#D3D3D3" cx="855.473" cy="152.561" rx="11.735" ry="11.946"/>
		
			<ellipse id="noballot36_00000120540987520892606610000009937376898101451199_" fill="#D3D3D3" cx="914.277" cy="343.743" rx="11.735" ry="11.946"/>
		
			<ellipse id="noballot35_00000063592742907001870290000010725453158979125427_" fill="#D3D3D3" cx="856.444" cy="513.643" rx="11.735" ry="11.946"/>
		
			<ellipse id="noballot34_00000120543880289715601040000009851019998421713313_" fill="#D3D3D3" cx="918.954" cy="381.848" rx="11.735" ry="11.946"/>
		
			<ellipse id="noballot33_00000136396558012832472470000005672834233214140562_" fill="#D3D3D3" cx="800.895" cy="162.034" rx="11.735" ry="11.946"/>
		
			<ellipse id="noballot32_00000155117620512828146940000001772629286592679051_" fill="#D3D3D3" cx="841.402" cy="115.667" rx="11.735" ry="11.946"/>
		
			<ellipse id="noballot31_00000096775865408962077850000006270954127177720472_" fill="#D3D3D3" cx="873.213" cy="123.153" rx="11.735" ry="11.946"/>
		
			<ellipse id="noballot30_00000180348700766297713850000003245677322972841887_" fill="#D3D3D3" cx="855.901" cy="197.565" rx="11.735" ry="11.946"/>
		
			<ellipse id="noballot29_00000024711368836846831060000004356305069085945495_" fill="#D3D3D3" cx="830.273" cy="177.024" rx="11.735" ry="11.946"/>
		
			<ellipse id="noballot28_00000062872574968413456310000017438105459920656287_" fill="#D3D3D3" cx="797.431" cy="188.97" rx="11.735" ry="11.946"/>
		
			<ellipse id="noballot27_00000049220630117362505260000005954711256651066555_" fill="#D3D3D3" cx="891.648" cy="217.887" rx="11.735" ry="11.946"/>
		
			<ellipse id="noballot26_00000029039450943232196280000013589036035967627432_" fill="#D3D3D3" cx="879.579" cy="289.563" rx="11.735" ry="11.946"/>
		
			<ellipse id="noballot25_00000083069036339814754100000003429365103842958230_" fill="#D3D3D3" cx="911.389" cy="273.544" rx="11.735" ry="11.946"/>
		
			<ellipse id="noballot24_00000106113268207879285670000014246346646417248179_" fill="#D3D3D3" cx="856.11" cy="233.402" rx="11.735" ry="11.946"/>
		
			<ellipse id="noballot23_00000121966033101629004190000010782553342078843807_" fill="#D3D3D3" cx="914.277" cy="238.402" rx="11.735" ry="11.946"/>
		
			<ellipse id="noballot22_00000023980663425360670490000012830205940927179401_" fill="#D3D3D3" cx="883.75" cy="253.725" rx="11.735" ry="11.946"/>
		
			<ellipse id="noballot21_00000135658813272541933730000003399497284885409720_" fill="#D3D3D3" cx="868.179" cy="323.014" rx="11.735" ry="11.946"/>
		
			<ellipse id="noballot20_00000094596252620347358520000014019901098697191350_" fill="#D3D3D3" cx="907.219" cy="308.687" rx="11.735" ry="11.946"/>
		
			<ellipse id="noballot19_00000018958891971356716830000006815099411930717623_" fill="#D3D3D3" cx="733.108" cy="182.05" rx="11.735" ry="11.946"/>
		
			<ellipse id="noballot18_00000159430693079107205330000015244435182385721272_" fill="#D3D3D3" cx="820.903" cy="209.511" rx="11.735" ry="11.946"/>
		
			<ellipse id="noballot17_00000103950740190950314710000011133139027711348640_" fill="#D3D3D3" cx="762.109" cy="197.565" rx="11.735" ry="11.946"/>
		
			<ellipse id="noballot16_00000023263411295975953180000015763087190314560662_" fill="#D3D3D3" cx="781.175" cy="221.457" rx="11.735" ry="11.946"/>
		
			<ellipse id="noballot15_00000021117904648759645650000010178726284445542038_" fill="#D3D3D3" cx="804.645" cy="278.582" rx="11.735" ry="11.946"/>
		
			<ellipse id="noballot14_00000148625886910235997560000003861980760386582959_" fill="#D3D3D3" cx="792.91" cy="250.348" rx="11.735" ry="11.946"/>
		
			<ellipse id="noballot13_00000008112811140987256990000011411160134509847445_" fill="#D3D3D3" cx="836.811" cy="311.068" rx="11.735" ry="11.946"/>
		
			<ellipse id="noballot12_00000067955833338174809940000010857576513445318565_" fill="#D3D3D3" cx="843.738" cy="273.911" rx="11.735" ry="11.946"/>
		
			<ellipse id="noballot11_00000029763945758140684320000008568155763114272142_" fill="#D3D3D3" cx="754.236" cy="238.402" rx="11.735" ry="11.946"/>
		
			<ellipse id="noballot10_00000103958342452229352960000001995931744771314307_" fill="#D3D3D3" cx="823.711" cy="244.046" rx="11.735" ry="11.946"/>
		
			<ellipse id="noballot9_00000116223909084869253600000011190097884454397604_" fill="#D3D3D3" cx="797.431" cy="314.42" rx="11.735" ry="11.946"/>
		
			<ellipse id="noballot8_00000178172704855697993320000015082683263944125355_" fill="#D3D3D3" cx="818.538" cy="343.829" rx="11.735" ry="11.946"/>
		
			<ellipse id="noballot7_00000108999424871283714100000013137659050516270014_" fill="#D3D3D3" cx="784.495" cy="530.674" rx="11.735" ry="11.946"/>
		
			<ellipse id="noballot6_00000097495122321426380690000010601892351910408343_" fill="#D3D3D3" cx="750.132" cy="526.649" rx="11.735" ry="11.946"/>
		
			<ellipse id="noballot5_00000092416829765160840940000008736398654900414872_" fill="#D3D3D3" cx="879.913" cy="182.05" rx="11.735" ry="11.946"/>
		
			<ellipse id="noballot4_00000096764326186033273160000005056662543246321548_" fill="#D3D3D3" cx="914.277" cy="188.97" rx="11.735" ry="11.946"/>
		
			<ellipse id="noballot3_00000138558475267161277530000015252971969193724859_" fill="#D3D3D3" cx="937.746" cy="213.42" rx="11.735" ry="11.946"/>
		
			<ellipse id="noballot2_00000035495553246581883020000004202540276441468345_" fill="#D3D3D3" cx="749.798" cy="487.35" rx="11.735" ry="11.946"/>
		
			<ellipse id="noballot1_00000059276115150592831960000011756044677598507435_" fill="#D3D3D3" cx="781.608" cy="494.836" rx="11.735" ry="11.946"/>
	</g>
	<g id="yes_00000062160921791625551830000000260741429304564657_">
		
			<ellipse id="yes142_00000151538459684978512220000006867786789450205322_" fill="#D3D3D3" cx="656.993" cy="323.42" rx="11.735" ry="11.946"/>
		
			<ellipse id="yes141_00000079463814570330543950000000939147697720929667_" fill="#D3D3D3" cx="631.365" cy="302.88" rx="11.735" ry="11.946"/>
		
			<ellipse id="yes140_00000150071759032326510650000018162492657988281236_" fill="#D3D3D3" cx="598.523" cy="314.826" rx="11.735" ry="11.946"/>
		
			<ellipse id="yes139_00000022539648087946425860000002409459929902261153_" fill="#D3D3D3" cx="570.533" cy="287.582" rx="11.735" ry="11.946"/>
		
			<ellipse id="yes138_00000101103676190053622160000011228345955418128520_" fill="#D3D3D3" cx="586.788" cy="253.449" rx="11.735" ry="11.946"/>
		
			<ellipse id="yes137_00000144328553319228122540000008414375689629858689_" fill="#D3D3D3" cx="605.737" cy="283.013" rx="11.735" ry="11.946"/>
		
			<ellipse id="yes136_00000057861254933543245820000010713958499669279384_" fill="#D3D3D3" cx="543.593" cy="271.067" rx="11.735" ry="11.946"/>
		
			<ellipse id="yes135_00000175319513293223038720000002005665465384578219_" fill="#D3D3D3" cx="692.74" cy="343.743" rx="11.735" ry="11.946"/>
		
			<ellipse id="yes134_00000183208403385413558030000003812712325528295571_" fill="#D3D3D3" cx="712.482" cy="399.4" rx="11.735" ry="11.946"/>
		
			<ellipse id="yes133_00000130610363110296513600000006841010817844722351_" fill="#D3D3D3" cx="657.202" cy="359.258" rx="11.735" ry="11.946"/>
		
			<ellipse id="yes132_00000095325466723586421620000004658673558562768310_" fill="#D3D3D3" cx="715.369" cy="364.257" rx="11.735" ry="11.946"/>
		
			<ellipse id="yes131_00000027606013979557004680000013720684137077884550_" fill="#D3D3D3" cx="684.842" cy="379.581" rx="11.735" ry="11.946"/>
		
			<ellipse id="yes130_00000059289572267033371680000003627766409893244556_" fill="#D3D3D3" cx="534.201" cy="307.905" rx="11.735" ry="11.946"/>
		
			<ellipse id="yes129_00000106147625923689779520000014515882928102512031_" fill="#D3D3D3" cx="621.995" cy="335.366" rx="11.735" ry="11.946"/>
		
			<ellipse id="yes128_00000041288375642645958000000009599181038573654151_" fill="#D3D3D3" cx="563.201" cy="323.42" rx="11.735" ry="11.946"/>
		
			<ellipse id="yes127_00000178180948976051847750000002832683758039056768_" fill="#D3D3D3" cx="582.267" cy="347.312" rx="11.735" ry="11.946"/>
		
			<ellipse id="yes126_00000133516757105003268900000011254613795693347996_" fill="#D3D3D3" cx="605.737" cy="404.437" rx="11.735" ry="11.946"/>
		
			<ellipse id="yes125_00000093160586189130469880000009616832427398350213_" fill="#D3D3D3" cx="594.002" cy="376.203" rx="11.735" ry="11.946"/>
		
			<ellipse id="yes124_00000048469823640706479020000000133595997743579325_" fill="#D3D3D3" cx="563.201" cy="399.4" rx="11.735" ry="11.946"/>
		
			<ellipse id="yes123_00000124131550125508853510000012110050701888699060_" fill="#D3D3D3" cx="644.83" cy="399.766" rx="11.735" ry="11.946"/>
		
			<ellipse id="yes122_00000006694358687347322650000000720781233857578405_" fill="#D3D3D3" cx="555.328" cy="364.257" rx="11.735" ry="11.946"/>
		
			<ellipse id="yes121_00000023256797524560866990000017635675623983565471_" fill="#D3D3D3" cx="624.803" cy="369.902" rx="11.735" ry="11.946"/>
		
			<ellipse id="yes120_00000070828800841029582680000003159706178300229804_" fill="#D3D3D3" cx="534.872" cy="343.743" rx="11.735" ry="11.946"/>
		
			<ellipse id="yes119_00000121964310127055264830000000191161122879143058_" fill="#D3D3D3" cx="515.068" cy="375.453" rx="11.735" ry="11.946"/>
		
			<ellipse id="yes118_00000112633099111643455250000000324471013385523602_" fill="#D3D3D3" cx="527.353" cy="407.163" rx="11.735" ry="11.946"/>
		
			<ellipse id="yes117_00000133519350257439901160000005148998828488521869_" fill="#D3D3D3" cx="563.201" cy="434.542" rx="11.735" ry="11.946"/>
		
			<ellipse id="yes116_00000174580014485354495620000011835507339612047031_" fill="#D3D3D3" cx="534.201" cy="444.617" rx="11.735" ry="11.946"/>
		
			<ellipse id="yes115_00000112605045547073512060000002938992665995002754_" fill="#D3D3D3" cx="626.168" cy="230.659" rx="11.735" ry="11.946"/>
		
			<ellipse id="yes114_00000069364456482909375870000003364558523057296279_" fill="#D3D3D3" cx="668.937" cy="259.121" rx="11.735" ry="11.946"/>
		
			<ellipse id="yes113_00000080890935621888054940000007049871066288863153_" fill="#D3D3D3" cx="633.73" cy="265.187" rx="11.735" ry="11.946"/>
		
			<ellipse id="yes112_00000176005154956736056760000010913254445638457782_" fill="#D3D3D3" cx="661.372" cy="223.029" rx="11.735" ry="11.946"/>
		
			<ellipse id="yes111_00000047027775549448667760000016087508080541447060_" fill="#D3D3D3" cx="656.993" cy="287.582" rx="11.735" ry="11.946"/>
		
			<ellipse id="yes110_00000095329665169354926380000000155963156254996149_" fill="#D3D3D3" cx="727.104" cy="283.013" rx="11.735" ry="11.946"/>
		
			<ellipse id="yes109_00000013913491907296740090000002934283070477721278_" fill="#D3D3D3" cx="692.74" cy="278.988" rx="11.735" ry="11.946"/>
		
			<ellipse id="yes108_00000150800030753168155360000012141611072466799803_" fill="#D3D3D3" cx="681.005" cy="307.905" rx="11.735" ry="11.946"/>
		
			<ellipse id="yes107_00000061432961494986341200000014819186437633222529_" fill="#D3D3D3" cx="715.369" cy="314.826" rx="11.735" ry="11.946"/>
		
			<ellipse id="yes106_00000109707948437198054860000007583503600486116267_" fill="#D3D3D3" cx="692.406" cy="239.689" rx="11.735" ry="11.946"/>
		
			<ellipse id="yes105_00000076571541435278334140000012911065644725958785_" fill="#D3D3D3" cx="724.216" cy="247.175" rx="11.735" ry="11.946"/>
		
			<ellipse id="yes104_00000019671621436171578800000002275723748581457594_" fill="#D3D3D3" cx="503.333" cy="331.797" rx="11.735" ry="11.946"/>
		
			<ellipse id="yes103_00000165931025030132246290000000371171569917488263_" fill="#D3D3D3" cx="413.028" cy="275.942" rx="11.735" ry="11.946"/>
		
			<ellipse id="yes102_00000110437400416973772930000017415379142829154981_" fill="#D3D3D3" cx="387.4" cy="255.402" rx="11.735" ry="11.946"/>
		
			<ellipse id="yes101_00000052786920198619521590000001851451006084120971_" fill="#D3D3D3" cx="354.558" cy="267.348" rx="11.735" ry="11.946"/>
		
			<ellipse id="yes100_00000137851337807542517270000000721151784746517642_" fill="#D3D3D3" cx="326.567" cy="240.104" rx="11.735" ry="11.946"/>
		
			<ellipse id="yes99_00000076601464469355669220000008421751298568522893_" fill="#D3D3D3" cx="342.823" cy="205.971" rx="11.735" ry="11.946"/>
		
			<ellipse id="yes98_00000046324898422103341070000006038065941667122594_" fill="#D3D3D3" cx="361.772" cy="235.534" rx="11.735" ry="11.946"/>
		
			<ellipse id="yes97_00000061473895457619635730000003942806613535340421_" fill="#D3D3D3" cx="299.628" cy="223.588" rx="11.735" ry="11.946"/>
		
			<ellipse id="yes96_00000152255510104840161090000000314478835805054107_" fill="#D3D3D3" cx="448.775" cy="296.265" rx="11.735" ry="11.946"/>
		
			<ellipse id="yes95_00000183928833413485897720000016151544431472680349_" fill="#D3D3D3" cx="436.706" cy="367.94" rx="11.735" ry="11.946"/>
		
			<ellipse id="yes94_00000122717105126377305500000000426607658462903224_" fill="#D3D3D3" cx="468.516" cy="351.921" rx="11.735" ry="11.946"/>
		
			<ellipse id="yes93_00000150092270485070282840000010708255239468114588_" fill="#D3D3D3" cx="413.237" cy="311.78" rx="11.735" ry="11.946"/>
		
			<ellipse id="yes92_00000029042735767656854720000014064752316855903418_" fill="#D3D3D3" cx="471.404" cy="316.779" rx="11.735" ry="11.946"/>
		
			<ellipse id="yes91_00000117656211291426606820000005631293370170691205_" fill="#D3D3D3" cx="440.876" cy="332.103" rx="11.735" ry="11.946"/>
		
			<ellipse id="yes90_00000142145655398775281180000007041297966650772384_" fill="#D3D3D3" cx="425.305" cy="401.391" rx="11.735" ry="11.946"/>
		
			<ellipse id="yes89_00000085243973620563039880000013109964430896492430_" fill="#D3D3D3" cx="464.346" cy="387.064" rx="11.735" ry="11.946"/>
		
			<ellipse id="yes88_00000018926751002936291500000016997199017874105987_" fill="#D3D3D3" cx="290.235" cy="260.427" rx="11.735" ry="11.946"/>
		
			<ellipse id="yes87_00000108292836456953036710000017715591839884139953_" fill="#D3D3D3" cx="378.03" cy="287.888" rx="11.735" ry="11.946"/>
		
			<ellipse id="yes86_00000127747451383457419170000009907144017734407355_" fill="#D3D3D3" cx="319.236" cy="275.942" rx="11.735" ry="11.946"/>
		
			<ellipse id="yes85_00000099660416696811186560000006867832421979847326_" fill="#D3D3D3" cx="338.302" cy="299.834" rx="11.735" ry="11.946"/>
		
			<ellipse id="yes84_00000017487404747853694140000004063918430756282773_" fill="#D3D3D3" cx="361.772" cy="356.959" rx="11.735" ry="11.946"/>
		
			<ellipse id="yes83_00000019672332011251500280000017709373784241231489_" fill="#D3D3D3" cx="350.037" cy="328.725" rx="11.735" ry="11.946"/>
		
			<ellipse id="yes82_00000057846981293026829780000009682926125199978637_" fill="#D3D3D3" cx="393.938" cy="389.445" rx="11.735" ry="11.946"/>
		
			<ellipse id="yes81_00000035489635832286007390000010341724876352933765_" fill="#D3D3D3" cx="319.236" cy="351.921" rx="11.735" ry="11.946"/>
		
			<ellipse id="yes80_00000071535457642721623490000012897656561270465946_" fill="#D3D3D3" cx="400.865" cy="352.288" rx="11.735" ry="11.946"/>
		
			<ellipse id="yes79_00000044165954422147939610000016378066056289656980_" fill="#D3D3D3" cx="311.363" cy="316.779" rx="11.735" ry="11.946"/>
		
			<ellipse id="yes78_00000061437506863636416770000012871524070813149879_" fill="#D3D3D3" cx="380.838" cy="322.423" rx="11.735" ry="11.946"/>
		
			<ellipse id="yes77_00000173869519456430322430000005581332051143315078_" fill="#D3D3D3" cx="290.907" cy="296.265" rx="11.735" ry="11.946"/>
		
			<ellipse id="yes76_00000132778595200828577750000014520877252988717442_" fill="#D3D3D3" cx="271.103" cy="327.975" rx="11.735" ry="11.946"/>
		
			<ellipse id="yes75_00000054972434052574206610000017334294907150390202_" fill="#D3D3D3" cx="283.388" cy="359.685" rx="11.735" ry="11.946"/>
		
			<ellipse id="yes74_00000160883987701647886400000013633063610616705432_" fill="#D3D3D3" cx="319.236" cy="387.064" rx="11.735" ry="11.946"/>
		
			<ellipse id="yes73_00000107576811083786473120000010616376103474868621_" fill="#D3D3D3" cx="354.558" cy="392.797" rx="11.735" ry="11.946"/>
		
			<ellipse id="yes72_00000183941982130703681760000007559316256057651882_" fill="#D3D3D3" cx="290.235" cy="397.139" rx="11.735" ry="11.946"/>
		
			<ellipse id="yes71_00000039849933899727175640000018045367715491325371_" fill="#D3D3D3" cx="375.665" cy="422.206" rx="11.735" ry="11.946"/>
		
			<ellipse id="yes70_00000018941138190698691240000007133037526734808491_" fill="#D3D3D3" cx="382.203" cy="183.181" rx="11.735" ry="11.946"/>
		
			<ellipse id="yes69_00000055671832076552904080000016329989253880547514_" fill="#D3D3D3" cx="424.971" cy="211.642" rx="11.735" ry="11.946"/>
		
			<ellipse id="yes68_00000112624604909213532100000008895438609484841390_" fill="#D3D3D3" cx="389.764" cy="217.709" rx="11.735" ry="11.946"/>
		
			<ellipse id="yes67_00000145060023809926916870000017694783467811549363_" fill="#D3D3D3" cx="417.407" cy="175.551" rx="11.735" ry="11.946"/>
		
			<ellipse id="yes66_00000069364826482999896660000005604169600834528180_" fill="#D3D3D3" cx="413.028" cy="240.104" rx="11.735" ry="11.946"/>
		
			<ellipse id="yes65_00000183208589358109003400000011551349169578653058_" fill="#D3D3D3" cx="483.138" cy="235.534" rx="11.735" ry="11.946"/>
		
			<ellipse id="yes64_00000181082565422367939980000013106852673211853964_" fill="#D3D3D3" cx="448.775" cy="231.51" rx="11.735" ry="11.946"/>
		
			<ellipse id="yes63_00000093173147256300614180000003824823478700171689_" fill="#D3D3D3" cx="437.04" cy="260.427" rx="11.735" ry="11.946"/>
		
			<ellipse id="yes62_00000026861673699654695240000009674544058146610596_" fill="#D3D3D3" cx="471.404" cy="267.348" rx="11.735" ry="11.946"/>
		
			<ellipse id="yes61_00000165936522340997783330000016328733140820502951_" fill="#D3D3D3" cx="494.873" cy="291.797" rx="11.735" ry="11.946"/>
		
			<ellipse id="yes60_00000040564844339322331070000011310165409198215045_" fill="#D3D3D3" cx="448.441" cy="192.211" rx="11.735" ry="11.946"/>
		
			<ellipse id="yes59_00000134955111300473047770000000171555771155747738_" fill="#D3D3D3" cx="480.251" cy="199.697" rx="11.735" ry="11.946"/>
		
			<ellipse id="yes58_00000127007873684813654960000003700072697935167130_" fill="#D3D3D3" cx="259.368" cy="284.319" rx="11.735" ry="11.946"/>
		
			<ellipse id="yes57_00000165945746429561073890000012493319222209003649_" fill="#D3D3D3" cx="386.491" cy="526.859" rx="11.735" ry="11.946"/>
		
			<ellipse id="yes56_00000142857399699353816770000011242957055994456231_" fill="#D3D3D3" cx="353.648" cy="538.805" rx="11.735" ry="11.946"/>
		
			<ellipse id="yes55_00000031904944841078673950000017657953891859482042_" fill="#D3D3D3" cx="325.658" cy="511.561" rx="11.735" ry="11.946"/>
		
			<ellipse id="yes54_00000181081404889295067500000015376160262951926445_" fill="#D3D3D3" cx="341.914" cy="477.428" rx="11.735" ry="11.946"/>
		
			<ellipse id="yes53_00000124144895952674814900000014279483897577577384_" fill="#D3D3D3" cx="360.862" cy="506.991" rx="11.735" ry="11.946"/>
		
			<ellipse id="yes52_00000084494369779078168010000009868927852825055105_" fill="#D3D3D3" cx="298.719" cy="495.045" rx="11.735" ry="11.946"/>
		
			<ellipse id="yes51_00000150806723242305545620000009240613000058322838_" fill="#D3D3D3" cx="390.377" cy="152.563" rx="11.735" ry="11.946"/>
		
			<ellipse id="yes50_00000116917511861344516070000004878313043554769596_" fill="#D3D3D3" cx="394.547" cy="116.725" rx="11.735" ry="11.946"/>
		
			<ellipse id="yes49_00000032649460391979976760000008101746526732003761_" fill="#D3D3D3" cx="404.763" cy="419.109" rx="11.735" ry="11.946"/>
		
			<ellipse id="yes48_00000008146964699045939650000015591998461936526735_" fill="#D3D3D3" cx="491.076" cy="451.722" rx="11.735" ry="11.946"/>
		
			<ellipse id="yes47_00000040563892477918963890000017680466677831611562_" fill="#D3D3D3" cx="289.326" cy="531.884" rx="11.735" ry="11.946"/>
		
			<ellipse id="yes46_00000023270004375781864190000014527066544430107016_" fill="#D3D3D3" cx="315.443" cy="141.582" rx="11.735" ry="11.946"/>
		
			<ellipse id="yes45_00000075852572758383207430000016288168194790279845_" fill="#D3D3D3" cx="347.608" cy="174.068" rx="11.735" ry="11.946"/>
		
			<ellipse id="yes44_00000183950695682601497800000013559715190527941514_" fill="#D3D3D3" cx="331.848" cy="414.314" rx="11.735" ry="11.946"/>
		
			<ellipse id="yes43_00000021837822977020338710000002956642267558492852_" fill="#D3D3D3" cx="354.536" cy="136.911" rx="11.735" ry="11.946"/>
		
			<ellipse id="yes42_00000023974287612838808950000002214883611742227868_" fill="#D3D3D3" cx="454.933" cy="162.122" rx="11.735" ry="11.946"/>
		
			<ellipse id="yes41_00000142879958796016679340000009108461312657420958_" fill="#D3D3D3" cx="426.218" cy="137.128" rx="11.735" ry="11.946"/>
		
			<ellipse id="yes40_00000101079420973405212810000007082497679740372133_" fill="#D3D3D3" cx="299.628" cy="427.365" rx="11.735" ry="11.946"/>
		
			<ellipse id="yes39_00000160885409853379494500000014632844353373882791_" fill="#D3D3D3" cx="331.848" cy="449.457" rx="11.735" ry="11.946"/>
		
			<ellipse id="yes38_00000142136642198966434760000004935080874769820807_" fill="#D3D3D3" cx="308.229" cy="177.419" rx="11.735" ry="11.946"/>
		
			<ellipse id="yes37_00000132796353336516366220000002979155454595483313_" fill="#D3D3D3" cx="302.847" cy="459.532" rx="11.735" ry="11.946"/>
		
			<ellipse id="yes36_00000055685126907710722050000005507693458839870599_" fill="#D3D3D3" cx="506.608" cy="259.121" rx="11.735" ry="11.946"/>
		
			<ellipse id="yes35_00000104694971794397800770000003159343029199830153_" fill="#D3D3D3" cx="381.293" cy="454.638" rx="11.735" ry="11.946"/>
		
			<ellipse id="yes34_00000132063545215609381930000015582913601915145113_" fill="#D3D3D3" cx="424.062" cy="483.099" rx="11.735" ry="11.946"/>
		
			<ellipse id="yes33_00000003088730577848248120000006823423232026049199_" fill="#D3D3D3" cx="388.855" cy="489.166" rx="11.735" ry="11.946"/>
		
			<ellipse id="yes32_00000154394431240533679630000001445331086381860742_" fill="#D3D3D3" cx="416.498" cy="447.008" rx="11.735" ry="11.946"/>
		
			<ellipse id="yes31_00000016770981551176588500000007518472798517764274_" fill="#D3D3D3" cx="412.119" cy="511.561" rx="11.735" ry="11.946"/>
		
			<ellipse id="yes30_00000155132544446825735100000002680941331830060452_" fill="#D3D3D3" cx="447.866" cy="502.967" rx="11.735" ry="11.946"/>
		
			<ellipse id="yes29_00000138539533468765387040000006086392626142326918_" fill="#D3D3D3" cx="436.131" cy="531.884" rx="11.735" ry="11.946"/>
		
			<ellipse id="yes28_00000115511136316795953990000012599370593575485349_" fill="#D3D3D3" cx="447.531" cy="463.668" rx="11.735" ry="11.946"/>
		
			<ellipse id="yes27_00000175301169197583400420000016373059961511446443_" fill="#D3D3D3" cx="454.933" cy="428.329" rx="11.735" ry="11.946"/>
		
			<ellipse id="yes26_00000024681308678908135770000001503054022455219603_" fill="#D3D3D3" cx="470.494" cy="132.032" rx="11.735" ry="11.946"/>
		
			<ellipse id="yes25_00000115501645982856900440000006775267607821087895_" fill="#D3D3D3" cx="670.56" cy="145.383" rx="11.735" ry="11.946"/>
		
			<ellipse id="yes24_00000026143604262044991240000007921830415384626060_" fill="#D3D3D3" cx="702.37" cy="129.365" rx="11.735" ry="11.946"/>
		
			<ellipse id="yes23_00000027575371298489297030000005838756803173501833_" fill="#D3D3D3" cx="674.73" cy="109.546" rx="11.735" ry="11.946"/>
		
			<ellipse id="yes22_00000077296675888745798390000016313028454301098906_" fill="#D3D3D3" cx="659.159" cy="178.834" rx="11.735" ry="11.946"/>
		
			<ellipse id="yes21_00000129185982683553056130000007419417112555027104_" fill="#D3D3D3" cx="698.2" cy="164.507" rx="11.735" ry="11.946"/>
		
			<ellipse id="yes20_00000037660685213743138340000000318745806396595642_" fill="#D3D3D3" cx="595.625" cy="134.402" rx="11.735" ry="11.946"/>
		
			<ellipse id="yes19_00000052072803823395979100000018264519205838112650_" fill="#D3D3D3" cx="583.891" cy="106.168" rx="11.735" ry="11.946"/>
		
			<ellipse id="yes18_00000029010726746073691220000017029009724664378512_" fill="#D3D3D3" cx="627.791" cy="166.888" rx="11.735" ry="11.946"/>
		
			<ellipse id="yes17_00000049222658322820281740000014530072935062149529_" fill="#D3D3D3" cx="553.09" cy="129.365" rx="11.735" ry="11.946"/>
		
			<ellipse id="yes16_00000176004609461553021130000015095984495461591975_" fill="#D3D3D3" cx="634.719" cy="129.731" rx="11.735" ry="11.946"/>
		
			<ellipse id="yes15_00000021809238532731743900000017597827002894648763_" fill="#D3D3D3" cx="614.692" cy="99.866" rx="11.735" ry="11.946"/>
		
			<ellipse id="yes14_00000004509704452873311920000006620127753839220895_" fill="#D3D3D3" cx="504.956" cy="105.418" rx="11.735" ry="11.946"/>
		
			<ellipse id="yes13_00000002369137324637235220000003401162202654896800_" fill="#D3D3D3" cx="517.242" cy="137.128" rx="11.735" ry="11.946"/>
		
			<ellipse id="yes12_00000118360251104439177260000003355824730000141700_" fill="#D3D3D3" cx="553.09" cy="164.507" rx="11.735" ry="11.946"/>
		
			<ellipse id="yes11_00000182525148486552262120000009472731421147467418_" fill="#D3D3D3" cx="588.411" cy="170.24" rx="11.735" ry="11.946"/>
		
			<ellipse id="yes10_00000061457433108282256420000015319658327311465883_" fill="#D3D3D3" cx="524.089" cy="174.582" rx="11.735" ry="11.946"/>
		
			<ellipse id="yes9_00000092449408971729612730000003836114816460692611_" fill="#D3D3D3" cx="609.519" cy="199.65" rx="11.735" ry="11.946"/>
		
			<ellipse id="yes8_00000015332119346543778700000009776865741683060134_" fill="#D3D3D3" cx="493.964" cy="166.888" rx="11.735" ry="11.946"/>
		
			<ellipse id="yes7_00000067930361764435227980000012157306091139563438_" fill="#D3D3D3" cx="733.78" cy="217.887" rx="11.735" ry="11.946"/>
		
			<ellipse id="yes6_00000142886331779464668110000016010420943001925767_" fill="#D3D3D3" cx="702.241" cy="205.941" rx="11.735" ry="11.946"/>
		
			<ellipse id="yes5_00000142143398797367125570000009169177602623464620_" fill="#D3D3D3" cx="586.84" cy="222.191" rx="11.735" ry="11.946"/>
		
			<ellipse id="yes4_00000141422343030441092300000013825638726358062213_" fill="#D3D3D3" cx="491.076" cy="410.261" rx="11.735" ry="11.946"/>
		
			<ellipse id="yes3_00000013892231494611226640000002544821238267705276_" fill="#D3D3D3" cx="555.473" cy="210.245" rx="11.735" ry="11.946"/>
		
			<ellipse id="yes2_00000078018036880704718400000009949319595818577329_" fill="#D3D3D3" cx="516.093" cy="213.597" rx="11.735" ry="11.946"/>
		
			<ellipse id="yes1_00000173158151416812783580000006718951629742930577_" fill="#D3D3D3" cx="537.2" cy="243.007" rx="11.735" ry="11.946"/>
	</g>
</g>
<style>
#g-scrolly-Artboard_1-1200-circles-img rect, #g-scrolly-Artboard_1-1200-circles-img circle, #g-scrolly-Artboard_1-1200-circles-img path, #g-scrolly-Artboard_1-1200-circles-img line, #g-scrolly-Artboard_1-1200-circles-img polyline, #g-scrolly-Artboard_1-1200-circles-img polygon { vector-effect: non-scaling-stroke; }
</style>
</svg>

